<?xml version="1.0" encoding="UTF-8"?>
<svg version="1.1" viewBox="0 0 172 42" xmlns="http://www.w3.org/2000/svg" xmlns:xlink="http://www.w3.org/1999/xlink">
<title>Greenlee Primary Logo</title>
<defs>
<polygon id="a" points="0.025171 0.25339 41.279 0.25339 41.279 41.532 0.025171 41.532"/>
</defs>
<g fill="none" fill-rule="evenodd">
<mask id="b" fill="white">
<use xlink:href="#a"/>
</mask>
<path d="m0 20.89l20.64 20.641 20.639-20.637-20.639-20.641-20.64 20.637zm32.312 0.0012585c0 6.4479-5.225 11.672-11.672 11.672s-11.673-5.2242-11.673-11.672c0-6.4466 5.2267-11.672 11.673-11.672s11.672 5.225 11.672 11.672z" fill="#89C140" mask="url(#b)"/>
<path d="m12.674 20.818c0 4.8785 2.8103 7.9649 7.4233 8.115 3.5688 0 4.2044-0.32428 7.5269-0.84028v-8.3332h-7.1153v3.0234h3.0129v2.872c-0.61459 0.12837-1.3739 0.25716-2.1324 0.25716-2.9525 0-4.4087-2.0288-4.4087-5.0941 0-2.5246 0.98418-5.095 3.7525-5.095 1.3538 0 2.4823 0.45265 2.6866 1.9646h4.1024c-0.062088-4.5324-3.8364-5.0954-7.4249-4.9867-4.613 0.15144-7.4233 3.2378-7.4233 8.1171" fill="#89C140"/>
<path d="m73.99 28.69h5.0325c-0.39518-1.3454-0.65234-2.5301-0.76855-3.9308-0.2408-2.072-0.67793-3.4899-2.6295-3.8864 1.7145-0.4946 3.0331-1.7087 3.0331-3.7437 0-3.4551-3.5797-4.1439-6.1362-4.1439h-7.2806v15.705h4.6436v-5.8484h1.3865c2.0141 0 2.0506 0.64982 2.2133 2.4235 0.1162 1.1822 0.25003 2.2616 0.50593 3.4249m-2.6559-9.1978h-1.4498v-3.148h1.4498c1.389 0 2.468 0.21563 2.468 1.5686 0 1.3525-1.079 1.5795-2.468 1.5795" fill="#89C140"/>
<polyline points="81.012 28.69 93.071 28.69 93.071 25.319 85.656 25.319 85.656 22.481 92.479 22.481 92.479 19.109 85.656 19.109 85.656 16.358 93.071 16.358 93.071 12.986 81.012 12.986 81.012 28.69" fill="#89C140"/>
<polyline points="95.534 28.69 107.59 28.69 107.59 25.319 100.18 25.319 100.18 22.481 107 22.481 107 19.109 100.18 19.109 100.18 16.358 107.59 16.358 107.59 12.986 95.534 12.986 95.534 28.69" fill="#89C140"/>
<polyline points="121.07 23.737 116.24 12.985 109.97 12.985 109.97 28.691 114.19 28.691 114.19 17.631 119.09 28.691 125.29 28.691 125.29 12.985 121.07 12.985 121.07 23.737" fill="#89C140"/>
<polyline points="132.69 12.985 128.05 12.985 128.05 28.69 139.62 28.69 139.62 25.32 132.69 25.32 132.69 12.985" fill="#89C140"/>
<polyline points="141.43 28.69 153.49 28.69 153.49 25.319 146.07 25.319 146.07 22.481 152.9 22.481 152.9 19.109 146.07 19.109 146.07 16.358 153.49 16.358 153.49 12.986 141.43 12.986 141.43 28.69" fill="#89C140"/>
<polyline points="155.95 28.69 168.01 28.69 168.01 25.319 160.59 25.319 160.59 22.481 167.42 22.481 167.42 19.109 160.59 19.109 160.59 16.358 168.01 16.358 168.01 12.986 155.95 12.986 155.95 28.69" fill="#89C140"/>
<path d="m62.504 19.654h-7.701v3.3146l3.1082-0.0046146v2.4479c-0.59319 0.11369-1.3479 0.22486-2.0523 0.22486-2.9118 0-4.352-1.874-4.352-4.798 0-2.4554 0.99718-4.8001 3.6745-4.8001 1.4033 0 2.3812 0.3398 2.601 1.874h4.6184c-0.070898-4.988-4.2971-5.3475-7.8818-5.2452-4.8793 0.15228-7.8688 3.273-7.8688 8.1713 0 4.8961 2.992 8.019 7.8713 8.1696 3.6846 0 4.3663-0.31841 7.9825-0.85455v-8.4997" fill="#89C140"/>
<path d="m170.46 25.92c-0.72702 0-1.3122 0.58564-1.3122 1.3064 0 0.7266 0.58522 1.3122 1.3122 1.3122 0.72408 0 1.3059-0.58564 1.3059-1.3122 0-0.72072-0.58186-1.3064-1.3059-1.3064m0 2.3887c-0.59948 0-1.0828-0.48328-1.0828-1.0823 0-0.59193 0.48328-1.0769 1.0828-1.0769 0.59571 0 1.076 0.48496 1.076 1.0769 0 0.59906-0.48034 1.0823-1.076 1.0823" fill="#89C140"/>
<path d="m170.7 27.231v-0.0079707c0.2043-0.041532 0.3117-0.18165 0.3117-0.35826 0-0.34861-0.29156-0.42371-0.57431-0.42371h-0.4967v1.5379h0.23954v-0.66619h0.20178c0.084322 0.0071317 0.16403 0 0.2236 0.062927 0.06922 0.073415 0.06922 0.19549 0.085581 0.32806 0.011327 0.089776 0.036917 0.18836 0.053278 0.2752h0.30498c-0.050341-0.14012-0.067961-0.30037-0.089356-0.44552-0.023912-0.1678-0.047824-0.26136-0.2601-0.30247m-0.26513-0.15774h-0.25464v-0.39266h0.28862c0.19214 0 0.24374 0.058312 0.24374 0.1741 0 0.1183-0.0516 0.21185-0.27772 0.21857" fill="#89C140"/>
</g>
</svg>
